HIERARCHY
ROOT Hips
{
	OFFSET 0.000000 71.427986 0.000000
	CHANNELS 6 Xposition Yposition Zposition Xrotation Yrotation Zrotation
	JOINT Pelvis
	{
		OFFSET 0.000000 0.000000 0.000000
		CHANNELS 3 Xrotation Yrotation Zrotation
		JOINT LeftUpLeg
		{
			OFFSET 6.797100 -2.508499 -1.318700
			CHANNELS 3 Xrotation Yrotation Zrotation
			JOINT LeftLeg
			{
				OFFSET 0.069008 -29.241863 0.690200
				CHANNELS 3 Xrotation Yrotation Zrotation
				JOINT LeftFoot
				{
					OFFSET -0.069008 -29.568123 -0.266800
					CHANNELS 3 Xrotation Yrotation Zrotation
					JOINT LeftToeBase
					{
						OFFSET 3.145500 -8.631000 16.059900
						CHANNELS 3 Xrotation Yrotation Zrotation
						End Site
						{
							OFFSET 0.000000 18.501587 0.000000
						}
					}
				}
			}
			JOINT Left_ShortSleeve
			{
				OFFSET 0.265923 -10.480953 1.153800
				CHANNELS 3 Xrotation Yrotation Zrotation
				End Site
				{
					OFFSET 1.725763 19.823879 0.000000
				}
			}
		}
		JOINT RightUpLeg
		{
			OFFSET -6.797100 -2.508499 -1.318700
			CHANNELS 3 Xrotation Yrotation Zrotation
			JOINT RightLeg
			{
				OFFSET -0.082453 -29.241932 0.688000
				CHANNELS 3 Xrotation Yrotation Zrotation
				JOINT RightFoot
				{
					OFFSET 0.082453 -29.568058 -0.264600
					CHANNELS 3 Xrotation Yrotation Zrotation
					JOINT RightToeBase
					{
						OFFSET -3.115300 -8.682800 16.113400
						CHANNELS 3 Xrotation Yrotation Zrotation
						End Site
						{
							OFFSET 0.000000 18.567114 0.000000
						}
					}
				}
			}
			JOINT Right_ShortSleeve
			{
				OFFSET -0.265923 -10.480953 1.153800
				CHANNELS 3 Xrotation Yrotation Zrotation
				End Site
				{
					OFFSET -1.725766 19.823910 0.000000
				}
			}
		}
	}
	JOINT Spine
	{
		OFFSET 0.000000 13.368103 0.470500
		CHANNELS 3 Xrotation Yrotation Zrotation
		JOINT Spine1
		{
			OFFSET 0.147000 13.837402 0.538800
			CHANNELS 3 Xrotation Yrotation Zrotation
			JOINT Spine2
			{
				OFFSET 0.168000 16.242897 -1.435500
				CHANNELS 3 Xrotation Yrotation Zrotation
				JOINT Neck
				{
					OFFSET 0.217200 18.631500 -1.679100
					CHANNELS 3 Xrotation Yrotation Zrotation
					JOINT Head
					{
						OFFSET 0.000000 6.599396 1.385900
						CHANNELS 3 Xrotation Yrotation Zrotation
						JOINT Hat
						{
							OFFSET -0.532200 27.220596 -10.096100
							CHANNELS 3 Xrotation Yrotation Zrotation
							End Site
							{
								OFFSET 0.000000 22.029861 0.000000
							}
						}
						JOINT HairD
						{
							OFFSET -10.777400 17.437393 -1.325900
							CHANNELS 3 Xrotation Yrotation Zrotation
							JOINT HairD1
							{
								OFFSET -3.290299 -11.051193 1.062200
								CHANNELS 3 Xrotation Yrotation Zrotation
								End Site
								{
									OFFSET 0.000000 11.579437 0.000000
								}
							}
						}
						JOINT HairB
						{
							OFFSET -10.777400 17.437393 1.467900
							CHANNELS 3 Xrotation Yrotation Zrotation
							JOINT HairB1
							{
								OFFSET -1.561200 -12.956299 3.590200
								CHANNELS 3 Xrotation Yrotation Zrotation
								End Site
								{
									OFFSET 0.000000 13.534866 0.000000
								}
							}
						}
						JOINT HairA
						{
							OFFSET 9.713100 17.437393 1.467900
							CHANNELS 3 Xrotation Yrotation Zrotation
							JOINT HairA1
							{
								OFFSET 1.561200 -12.956299 3.590200
								CHANNELS 3 Xrotation Yrotation Zrotation
								End Site
								{
									OFFSET 0.000000 13.534866 0.000000
								}
							}
						}
						JOINT HairC
						{
							OFFSET 9.713100 17.437393 -1.325900
							CHANNELS 3 Xrotation Yrotation Zrotation
							JOINT HairC1
							{
								OFFSET 3.290300 -11.051193 1.062200
								CHANNELS 3 Xrotation Yrotation Zrotation
								End Site
								{
									OFFSET 0.000000 11.579437 0.000000
								}
							}
						}
					}
				}
				JOINT LeftShoulder
				{
					OFFSET 5.101800 15.108002 -2.763700
					CHANNELS 3 Xrotation Yrotation Zrotation
					JOINT LeftArm
					{
						OFFSET 9.825497 2.506317 -1.597400
						CHANNELS 3 Xrotation Yrotation Zrotation
						JOINT LeftForeArm
						{
							OFFSET 21.966244 0.000000 0.000000
							CHANNELS 3 Xrotation Yrotation Zrotation
							JOINT LeftHand
							{
								OFFSET 33.879036 0.000000 0.000000
								CHANNELS 3 Xrotation Yrotation Zrotation
								JOINT LeftHandThumb1
								{
									OFFSET 6.715286 -2.359680 3.363841
									CHANNELS 3 Xrotation Yrotation Zrotation
									JOINT LeftHandThumb2
									{
										OFFSET 2.507072 -1.447464 1.447461
										CHANNELS 3 Xrotation Yrotation Zrotation
										JOINT LeftHandThumb3
										{
											OFFSET 2.898338 -1.673355 1.673357
											CHANNELS 3 Xrotation Yrotation Zrotation
											End Site
											{
												OFFSET -0.295959 3.727692 -0.131651
											}
										}
									}
								}
								JOINT LeftHandIndex1
								{
									OFFSET 14.190811 -0.254547 3.840278
									CHANNELS 3 Xrotation Yrotation Zrotation
									JOINT LeftHandIndex2
									{
										OFFSET 3.551727 0.000000 -0.000000
										CHANNELS 3 Xrotation Yrotation Zrotation
										JOINT LeftHandIndex3
										{
											OFFSET 2.894196 0.000000 0.000000
											CHANNELS 3 Xrotation Yrotation Zrotation
											End Site
											{
												OFFSET -1.000603 2.690872 0.366626
											}
										}
									}
								}
								JOINT LeftHandMiddle1
								{
									OFFSET 13.776489 0.000000 0.000000
									CHANNELS 3 Xrotation Yrotation Zrotation
									JOINT LeftHandMiddle2
									{
										OFFSET 3.438232 0.000000 0.000000
										CHANNELS 3 Xrotation Yrotation Zrotation
										JOINT LeftHandMiddle3
										{
											OFFSET 3.691551 0.000000 0.000000
											CHANNELS 3 Xrotation Yrotation Zrotation
											End Site
											{
												OFFSET -1.082298 3.499527 0.457670
											}
										}
									}
								}
								JOINT LeftHandRing1
								{
									OFFSET 13.966164 -0.268127 -3.067488
									CHANNELS 3 Xrotation Yrotation Zrotation
									JOINT LeftHandRing2
									{
										OFFSET 3.162567 0.000000 0.000000
										CHANNELS 3 Xrotation Yrotation Zrotation
										JOINT LeftHandRing3
										{
											OFFSET 3.324348 0.000000 0.000000
											CHANNELS 3 Xrotation Yrotation Zrotation
											End Site
											{
												OFFSET -0.861900 3.184998 0.405154
											}
										}
									}
								}
								JOINT LeftHandPinky1
								{
									OFFSET 13.131393 -0.168503 -5.746925
									CHANNELS 3 Xrotation Yrotation Zrotation
									JOINT LeftHandPinky2
									{
										OFFSET 2.849182 0.000000 0.000000
										CHANNELS 3 Xrotation Yrotation Zrotation
										JOINT LeftHandPinky3
										{
											OFFSET 2.805038 0.000000 0.000000
											CHANNELS 3 Xrotation Yrotation Zrotation
											End Site
											{
												OFFSET -0.882500 2.642609 0.325652
											}
										}
									}
								}
							}
							JOINT Left_Sleeve
							{
								OFFSET 6.592125 -0.646545 0.805568
								CHANNELS 3 Xrotation Yrotation Zrotation
								End Site
								{
									OFFSET -0.000179 20.275787 -0.000000
								}
							}
						}
					}
				}
				JOINT RightShoulder
				{
					OFFSET -5.731700 15.108002 -2.763700
					CHANNELS 3 Xrotation Yrotation Zrotation
					JOINT RightArm
					{
						OFFSET -9.825497 2.506317 -1.597400
						CHANNELS 3 Xrotation Yrotation Zrotation
						JOINT RightForeArm
						{
							OFFSET -21.966242 0.000000 0.000000
							CHANNELS 3 Xrotation Yrotation Zrotation
							JOINT RightHand
							{
								OFFSET -33.879032 0.000000 0.000000
								CHANNELS 3 Xrotation Yrotation Zrotation
								JOINT RightHandThumb1
								{
									OFFSET -6.715286 -2.359680 3.363841
									CHANNELS 3 Xrotation Yrotation Zrotation
									JOINT RightHandThumb2
									{
										OFFSET -2.507072 -1.447464 1.447461
										CHANNELS 3 Xrotation Yrotation Zrotation
										JOINT RightHandThumb3
										{
											OFFSET -2.898338 -1.673355 1.673357
											CHANNELS 3 Xrotation Yrotation Zrotation
											End Site
											{
												OFFSET 0.295959 3.727692 -0.131651
											}
										}
									}
								}
								JOINT RightHandIndex1
								{
									OFFSET -14.190811 -0.254547 3.840278
									CHANNELS 3 Xrotation Yrotation Zrotation
									JOINT RightHandIndex2
									{
										OFFSET -3.551727 0.000000 -0.000000
										CHANNELS 3 Xrotation Yrotation Zrotation
										JOINT RightHandIndex3
										{
											OFFSET -2.894196 0.000000 0.000000
											CHANNELS 3 Xrotation Yrotation Zrotation
											End Site
											{
												OFFSET 1.000603 2.690872 0.366626
											}
										}
									}
								}
								JOINT RightHandMiddle1
								{
									OFFSET -13.776489 0.000000 0.000000
									CHANNELS 3 Xrotation Yrotation Zrotation
									JOINT RightHandMiddle2
									{
										OFFSET -3.438232 0.000000 0.000000
										CHANNELS 3 Xrotation Yrotation Zrotation
										JOINT RightHandMiddle3
										{
											OFFSET -3.691551 0.000000 0.000000
											CHANNELS 3 Xrotation Yrotation Zrotation
											End Site
											{
												OFFSET 1.082298 3.499527 0.457670
											}
										}
									}
								}
								JOINT RightHandRing1
								{
									OFFSET -13.966164 -0.268127 -3.067488
									CHANNELS 3 Xrotation Yrotation Zrotation
									JOINT RightHandRing2
									{
										OFFSET -3.162567 0.000000 0.000000
										CHANNELS 3 Xrotation Yrotation Zrotation
										JOINT RightHandRing3
										{
											OFFSET -3.324348 0.000000 0.000000
											CHANNELS 3 Xrotation Yrotation Zrotation
											End Site
											{
												OFFSET 0.861900 3.184998 0.405154
											}
										}
									}
								}
								JOINT RightHandPinky1
								{
									OFFSET -13.131393 -0.168503 -5.746925
									CHANNELS 3 Xrotation Yrotation Zrotation
									JOINT RightHandPinky2
									{
										OFFSET -2.849182 0.000000 0.000000
										CHANNELS 3 Xrotation Yrotation Zrotation
										JOINT RightHandPinky3
										{
											OFFSET -2.805038 0.000000 0.000000
											CHANNELS 3 Xrotation Yrotation Zrotation
											End Site
											{
												OFFSET 0.882500 2.642609 0.325652
											}
										}
									}
								}
							}
							JOINT Right_Sleeve
							{
								OFFSET -6.592125 -0.646545 0.805568
								CHANNELS 3 Xrotation Yrotation Zrotation
								End Site
								{
									OFFSET 0.000179 20.275787 -0.000000
								}
							}
						}
					}
				}
				JOINT Bind_Right_JacketString
				{
					OFFSET -3.534800 11.969597 7.200700
					CHANNELS 3 Xrotation Yrotation Zrotation
					JOINT Bind_Right_JacketString1
					{
						OFFSET -0.319900 -6.102600 2.794100
						CHANNELS 3 Xrotation Yrotation Zrotation
						End Site
						{
							OFFSET 0.000000 6.719452 0.000000
						}
					}
				}
				JOINT Bind_Left_JacketString
				{
					OFFSET 2.904800 11.969597 7.200700
					CHANNELS 3 Xrotation Yrotation Zrotation
					JOINT Bind_Left_JacketString1
					{
						OFFSET 0.364800 -5.904503 3.186800
						CHANNELS 3 Xrotation Yrotation Zrotation
						End Site
						{
							OFFSET 0.000000 6.719513 0.000000
						}
					}
				}
				JOINT HairE
				{
					OFFSET 5.915200 17.612701 -11.592200
					CHANNELS 3 Xrotation Yrotation Zrotation
					JOINT HairE1
					{
						OFFSET 0.289200 -7.171898 -1.284500
						CHANNELS 3 Xrotation Yrotation Zrotation
						End Site
						{
							OFFSET 0.000000 7.291756 0.000000
						}
					}
				}
				JOINT HairF
				{
					OFFSET -0.864800 17.612701 -11.592200
					CHANNELS 3 Xrotation Yrotation Zrotation
					JOINT HairF1
					{
						OFFSET 0.000000 -14.087097 -2.127501
						CHANNELS 3 Xrotation Yrotation Zrotation
						End Site
						{
							OFFSET 0.000000 14.246841 0.000000
						}
					}
				}
				JOINT HairG
				{
					OFFSET -8.087700 17.612701 -11.592200
					CHANNELS 3 Xrotation Yrotation Zrotation
					JOINT HairG1
					{
						OFFSET -0.293600 -6.081398 -0.910100
						CHANNELS 3 Xrotation Yrotation Zrotation
						End Site
						{
							OFFSET 0.000000 6.156120 0.000000
						}
					}
				}
			}
		}
	}
	JOINT Pouch
	{
		OFFSET 0.000000 4.394501 10.847300
		CHANNELS 3 Xrotation Yrotation Zrotation
		End Site
		{
			OFFSET 0.000000 21.880577 0.000000
		}
	}
	JOINT Bag
	{
		OFFSET -13.229000 4.813004 -0.593300
		CHANNELS 3 Xrotation Yrotation Zrotation
		End Site
		{
			OFFSET 0.000000 21.880577 0.000000
		}
	}
	JOINT OccupyGuyFacialAnim_Joint
	{
		OFFSET 1.000000 -70.206398 -1.655000
		CHANNELS 3 Xrotation Yrotation Zrotation
		End Site
		{
			OFFSET 0.000000 21.880577 0.000000
		}
	}
}
MOTION
Frames: 4
Frame Time: 0.033333
0.249593 63.067986 0.078110 13.488311 -9.880849 4.034692 -0.000000 -0.000001 0.000000 -54.122576 12.192676 20.129548 41.356713 5.013255 5.472214 0.405018 0.759971 -14.513242 0.000000 -0.000002 -0.000000 0.000003 -0.000001 -0.000000 -41.408643 -8.405467 -29.443976 43.393787 -0.059484 -3.609111 -12.458611 -3.925778 23.995945 -0.000000 0.000000 0.000000 -0.000000 0.000000 -0.000001 9.300320 1.633716 -2.816455 1.801171 0.354806 -0.603813 1.804464 0.332506 -0.599091 -4.959281 0.128401 -0.138862 -24.924931 -1.885497 4.238249 -0.000000 -0.000000 -0.000000 -0.000000 -0.000000 -0.000000 -0.000000 -0.000000 0.000000 -0.000000 -0.000000 -0.000000 -0.000000 -0.000000 0.000000 -0.000000 -0.000000 -0.000000 -0.000000 -0.000000 0.000000 -0.000000 -0.000000 -0.000000 -0.000000 -0.000000 -0.000000 3.126744 -13.591972 -7.651132 -20.144108 5.516030 -45.577128 0.000027 -124.733516 0.000025 -68.358172 -3.148259 26.476340 47.237660 -14.298078 -20.338317 5.003269 31.303993 14.873522 0.000001 0.000001 -0.000000 2.625104 5.412081 -51.725477 6.677586 6.878179 -88.300617 0.000002 0.000000 -0.000002 1.770438 4.613850 -41.968357 5.642791 6.769359 -79.607774 0.000001 -0.000003 -0.000005 1.771729 4.615246 -41.984439 5.640900 6.769041 -79.591559 0.000001 0.000005 -0.000004 5.826302 7.927920 -51.587056 6.680595 2.792074 -88.335957 0.000003 0.000003 0.000001 -0.000000 0.000001 0.000004 1.463612 11.466615 11.103266 10.278364 22.984276 26.176772 0.000015 80.393143 -0.000038 22.564099 19.418047 -18.294428 33.436945 5.626289 32.261582 12.087216 -53.454881 -16.493976 0.000000 -0.000001 -0.000000 4.678806 -6.568892 70.892774 6.209528 -6.909016 83.882229 -0.000000 0.000002 0.000001 3.223017 -5.869361 57.515172 5.617402 -6.820189 78.931135 0.000001 0.000002 -0.000000 3.223010 -5.869318 57.515165 5.617416 -6.820201 78.931169 -0.000001 0.000000 -0.000003 4.678801 -6.568888 70.892774 6.209556 -6.909042 83.882229 0.000001 0.000002 0.000001 -0.000004 -0.000002 -0.000001 0.000000 0.000000 -0.000000 0.000000 -0.000000 -0.000000 0.000000 0.000000 -0.000000 0.000000 0.000000 -0.000000 0.000000 0.000000 -0.000000 0.000000 -0.000000 -0.000000 0.000000 0.000000 -0.000000 0.000000 0.000000 -0.000000 0.000000 0.000000 -0.000000 0.000000 -0.000000 -0.000000 -0.000000 -0.000001 0.000000 -0.000000 -0.000001 0.000000 -0.000000 -0.000001 0.000000 
0.278591 63.090294 0.045062 11.839414 -9.548890 3.140967 -0.000000 -0.000000 -0.000000 -53.219270 12.410662 20.594134 41.767836 3.942913 5.720973 0.247139 0.781132 -14.235661 0.000000 -0.000000 0.000000 -0.000000 0.000000 -0.000001 -39.784728 -9.467834 -29.274208 43.283827 0.199360 -3.799538 -12.510548 -3.946924 23.994528 -0.000000 0.000000 0.000000 0.000001 0.000001 0.000000 9.293899 1.452680 -2.800796 1.824617 0.325736 -0.600965 1.827692 0.303398 -0.596243 -5.087616 0.229847 -0.380700 -24.865466 -1.762836 4.596206 -0.000001 -0.000000 -0.000000 -0.000001 -0.000000 -0.000000 -0.000001 -0.000000 0.000000 -0.000001 -0.000000 -0.000000 -0.000001 -0.000000 0.000000 -0.000001 -0.000000 -0.000000 -0.000001 -0.000000 0.000000 -0.000001 -0.000000 -0.000000 -0.000001 -0.000000 -0.000000 3.143395 -13.730449 -7.498375 -20.184918 5.997494 -45.057590 -0.000000 -124.686251 0.000006 -68.921301 -3.094382 26.774386 47.237660 -14.298078 -20.338314 5.003268 31.303993 14.873519 0.000001 0.000001 -0.000000 2.625101 5.412081 -51.725473 6.677584 6.878184 -88.300617 -0.000000 0.000001 0.000000 1.770440 4.613850 -41.968353 5.642792 6.769358 -79.607781 0.000002 0.000002 -0.000004 1.771720 4.615245 -41.984439 5.640907 6.769040 -79.591559 -0.000001 0.000003 -0.000004 5.826297 7.927921 -51.587049 6.680594 2.792068 -88.335957 -0.000000 -0.000000 0.000005 0.000002 0.000002 -0.000000 1.485294 11.835048 10.634814 10.369352 23.491392 25.724685 0.000100 80.059106 -0.000116 21.890019 19.412526 -17.975617 33.436945 5.626286 32.261586 12.087212 -53.454874 -16.493978 -0.000001 0.000000 0.000000 4.678808 -6.568895 70.892774 6.209526 -6.909014 83.882223 0.000000 0.000002 -0.000001 3.223022 -5.869369 57.515172 5.617405 -6.820188 78.931141 0.000003 0.000001 0.000003 3.223013 -5.869324 57.515172 5.617413 -6.820208 78.931169 0.000003 -0.000004 -0.000002 4.678801 -6.568891 70.892774 6.209553 -6.909043 83.882229 0.000003 0.000003 0.000004 -0.000001 -0.000001 -0.000002 -0.000000 -0.000000 0.000000 -0.000002 -0.000000 0.000000 -0.000000 -0.000000 0.000000 -0.000000 -0.000000 0.000000 -0.000000 -0.000000 0.000000 -0.000002 -0.000000 0.000000 -0.000000 -0.000000 0.000000 -0.000000 -0.000000 0.000000 -0.000000 -0.000000 0.000000 -0.000002 -0.000000 0.000000 -0.000000 -0.000000 -0.000000 -0.000000 -0.000000 -0.000000 -0.000000 -0.000000 -0.000000 
0.431943 63.064766 -0.122201 9.670557 -8.219141 1.934756 0.000001 -0.000000 -0.000000 -52.325902 12.511487 20.636121 42.340869 2.182653 6.125200 0.233060 0.790804 -13.575039 0.000000 -0.000000 -0.000000 -0.000001 -0.000000 -0.000000 -37.492824 -10.878900 -29.313075 43.227564 -0.135532 -3.969611 -12.532580 -3.996707 24.292920 0.000000 0.000000 0.000000 0.000001 0.000003 0.000001 9.350082 1.303994 -2.733393 1.870797 0.304294 -0.533466 1.873370 0.285111 -0.528957 -5.061080 0.291643 -0.880468 -24.798148 -2.029549 4.960322 -0.000001 0.000001 0.000000 -0.000001 0.000001 0.000000 -0.000001 0.000001 0.000000 -0.000001 0.000001 0.000000 -0.000001 0.000000 0.000000 -0.000001 0.000001 0.000000 -0.000001 0.000000 0.000000 -0.000001 0.000001 0.000000 -0.000001 0.000001 0.000000 3.156267 -13.843532 -7.272018 -20.342496 6.760039 -44.734648 0.000023 -124.388714 0.000038 -69.697293 -3.182934 27.151867 47.237660 -14.298076 -20.338316 5.003271 31.303993 14.873521 0.000000 0.000001 -0.000000 2.625100 5.412080 -51.725470 6.677583 6.878182 -88.300617 0.000003 -0.000002 -0.000000 1.770438 4.613848 -41.968353 5.642789 6.769356 -79.607774 0.000003 -0.000000 0.000004 1.771724 4.615242 -41.984428 5.640897 6.769034 -79.591559 -0.000002 0.000003 -0.000005 5.826299 7.927921 -51.587053 6.680596 2.792070 -88.335964 -0.000000 -0.000000 0.000001 0.000001 -0.000001 -0.000002 1.525130 12.493231 10.073424 10.443435 23.874699 24.587378 -0.000115 79.850703 0.000119 20.852658 19.243599 -17.332616 33.436935 5.626282 32.261586 12.087214 -53.454884 -16.493961 -0.000003 -0.000001 -0.000000 4.678808 -6.568897 70.892774 6.209527 -6.909017 83.882223 0.000002 0.000003 0.000003 3.223017 -5.869365 57.515165 5.617405 -6.820187 78.931148 0.000002 -0.000000 -0.000004 3.223012 -5.869321 57.515165 5.617415 -6.820208 78.931169 -0.000003 0.000001 -0.000001 4.678804 -6.568893 70.892781 6.209555 -6.909048 83.882236 -0.000002 -0.000001 0.000002 0.000003 -0.000004 0.000003 0.000002 -0.000000 0.000000 0.000000 -0.000000 0.000000 0.000002 -0.000000 -0.000000 0.000002 -0.000000 -0.000000 0.000002 -0.000000 0.000000 0.000000 -0.000000 0.000000 0.000002 -0.000000 -0.000000 0.000002 -0.000000 -0.000000 0.000002 -0.000000 0.000000 0.000000 -0.000000 0.000000 0.000001 -0.000000 -0.000000 0.000001 -0.000000 -0.000000 0.000001 -0.000000 -0.000000 
0.621947 63.026810 -0.383904 7.105109 -5.654424 0.586791 0.000000 0.000000 -0.000000 -51.211430 12.297920 20.092350 42.779169 -0.145069 6.537208 0.521697 0.746621 -12.582911 0.000000 -0.000000 -0.000000 -0.000004 0.000000 -0.000000 -34.452277 -12.712450 -29.547863 43.182027 -1.204404 -4.033689 -12.601460 -4.093090 24.860526 -0.000000 0.000000 0.000000 0.000004 -0.000001 0.000002 9.419110 1.424014 -2.627217 1.923593 0.331748 -0.342311 1.924880 0.322263 -0.338391 -4.790120 0.208180 -1.733278 -24.752047 -3.134946 5.097761 0.000000 -0.000000 -0.000000 0.000000 -0.000000 -0.000000 0.000000 -0.000000 -0.000000 0.000000 -0.000000 -0.000000 0.000000 0.000000 -0.000000 0.000000 -0.000000 -0.000000 0.000000 0.000000 -0.000000 0.000000 -0.000000 -0.000000 0.000000 -0.000000 -0.000000 3.155713 -13.855543 -7.049485 -20.503839 7.921554 -45.220777 0.000043 -123.943905 0.000061 -70.591098 -3.622627 27.313030 47.237663 -14.298079 -20.338314 5.003268 31.303986 14.873522 0.000000 -0.000000 -0.000000 2.625100 5.412080 -51.725473 6.677584 6.878181 -88.300617 -0.000001 0.000002 -0.000002 1.770434 4.613850 -41.968357 5.642788 6.769354 -79.607781 0.000001 0.000004 -0.000004 1.771721 4.615243 -41.984432 5.640897 6.769038 -79.591559 -0.000001 0.000000 0.000001 5.826300 7.927919 -51.587053 6.680595 2.792071 -88.335964 0.000001 0.000003 -0.000000 0.000003 -0.000001 0.000002 1.580486 13.246010 9.556100 10.447635 23.899955 22.530820 0.000107 80.074993 -0.000120 19.639529 18.791508 -16.390270 33.436938 5.626280 32.261586 12.087218 -53.454874 -16.493968 -0.000001 0.000000 0.000001 4.678809 -6.568900 70.892774 6.209526 -6.909016 83.882223 -0.000001 0.000003 -0.000001 3.223021 -5.869368 57.515165 5.617404 -6.820190 78.931135 0.000002 -0.000002 -0.000004 3.223015 -5.869319 57.515165 5.617415 -6.820200 78.931169 -0.000001 -0.000001 -0.000003 4.678802 -6.568894 70.892774 6.209559 -6.909046 83.882229 0.000003 0.000003 0.000004 -0.000000 0.000002 0.000003 0.000002 0.000000 -0.000000 0.000002 0.000000 -0.000000 0.000002 0.000000 -0.000000 0.000002 0.000000 -0.000000 0.000002 0.000000 -0.000000 0.000002 0.000000 -0.000000 0.000002 0.000000 -0.000000 0.000002 0.000000 -0.000000 0.000002 0.000000 -0.000000 0.000002 0.000000 -0.000000 0.000000 0.000000 -0.000000 0.000000 0.000000 -0.000000 0.000000 0.000000 -0.000000 
